<?xml version="1.0" standalone="no"?>
<!DOCTYPE svg PUBLIC "-//W3C//DTD SVG 20010904//EN"
 "http://www.w3.org/TR/2001/REC-SVG-20010904/DTD/svg10.dtd">
<svg version="1.0" xmlns="http://www.w3.org/2000/svg"
 width="700.000000pt" height="700.000000pt" viewBox="0 0 700.000000 700.000000"
 preserveAspectRatio="xMidYMid meet">
<metadata>
Created by potrace 1.14, written by Peter Selinger 2001-2017
</metadata>
<g transform="translate(0.000000,700.000000) scale(0.100000,-0.100000)"
fill="#000000" stroke="none">
<path d="M0 6918 l0 -83 468 -182 c394 -154 477 -183 523 -184 30 0 70 -7 89
-14 l35 -13 -45 -1 c-73 -2 -26 -21 51 -21 39 0 78 -6 95 -15 16 -8 54 -15 84
-15 58 0 73 -6 78 -29 2 -11 -6 -12 -40 -7 -23 4 -39 4 -35 0 9 -10 108 -23
124 -17 7 3 10 9 7 14 -3 5 3 6 12 2 15 -6 15 -7 1 -18 -14 -10 -11 -14 22
-25 21 -7 49 -9 62 -5 65 18 66 19 45 3 -18 -14 -17 -15 20 -26 72 -20 263
-98 282 -115 21 -19 47 -23 36 -6 -4 7 -1 10 7 7 8 -3 14 -11 14 -18 0 -14 51
-48 74 -49 11 -1 11 2 1 14 -21 25 5 17 30 -10 13 -14 20 -25 16 -25 -5 0 -3
-7 4 -15 7 -8 16 -15 20 -15 11 0 8 34 -4 42 -7 5 -5 8 5 8 9 0 24 -10 35 -21
26 -29 91 -70 115 -72 10 -1 21 -7 24 -15 3 -9 12 -11 26 -7 13 4 19 3 16 -2
-4 -6 7 -23 23 -38 33 -31 40 -23 13 14 -12 18 -13 22 -2 16 27 -15 59 -49 59
-61 0 -7 33 -25 73 -40 39 -16 74 -31 77 -35 3 -3 16 -8 30 -11 14 -3 988
-382 2165 -843 1177 -460 2168 -848 2203 -861 l62 -24 0 1450 0 1450 -3500 0
-3500 0 0 -82z m1485 -588 c-3 -6 4 -10 17 -11 13 0 17 -3 10 -6 -18 -7 -44 5
-37 17 3 5 8 10 11 10 3 0 2 -4 -1 -10z"/>
<path d="M3200 2755 l0 -1236 63 6 c121 11 1319 86 1322 83 2 -2 -622 -231
-1386 -508 -765 -278 -1390 -509 -1389 -514 1 -5 -5 -13 -14 -18 -20 -11 -27
-65 -30 -223 -3 -223 -6 -225 -355 -237 -328 -10 -620 -25 -766 -38 -66 -6
-165 -12 -220 -13 -73 -2 -118 -9 -167 -26 -38 -12 -68 -25 -68 -27 0 -2 1532
-4 3405 -4 l3405 0 0 1995 0 1995 -1900 0 -1900 0 0 -1235z"/>
</g>
</svg>
